<svg xmlns="http://www.w3.org/2000/svg" width="235" height="242" viewBox="0 0 235 242"><path fill="#333" d="M3.117 168.688l-.646-93.809 66.32-66.32 94.131.324 66.32 66.32.063 93.869-66.321 66.319-93.547-.383z"/><path fill="#AF8E8E" d="M207.391 96.348s-17.258-5.322-22.58 0v19.756s-15.1 4.656-19.757 0 4.657-15.1 0-19.756c-5.321-5.322-22.579 0-22.579 0s-5.321-17.258 0-22.58h19.758c4.656-4.656 4.656-15.1 0-19.758-4.658-4.654-15.1 4.658-19.758 0-5.321-5.32 0-22.576 0-22.576s17.258 5.322 22.579 0c4.657-4.658-4.657-15.102 0-19.758s15.101-4.656 19.757 0-4.656 15.1 0 19.758c5.322 5.322 22.58 0 22.58 0s5.32 17.256 0 22.576c-4.657 4.658-15.101-4.654-19.758 0-4.656 4.658-4.656 15.102 0 19.758h19.758c5.32 5.322 0 22.58 0 22.58z"/><path fill="#333" d="M203.772 70.423c-2.203 0-4.565.729-6.851 1.433-2.001.617-4.07 1.255-5.671 1.255-1.281 0-1.851-.405-2.204-.758-3.875-3.875-3.875-13.053 0-16.929.353-.353.922-.758 2.203-.758 1.6 0 3.669.638 5.671 1.255 2.284.705 4.647 1.433 6.85 1.433 2.06 0 3.754-.65 5.034-1.931 5.999-5.999 1.078-22.695.497-24.58l-.59-1.91-1.91.588c-.074.022-7.472 2.276-13.771 2.276-3.288 0-5.642-.615-6.806-1.779-1.373-1.374-.694-4.011.497-7.876 1.258-4.079 2.684-8.701-.497-11.881-2.592-2.592-6.707-4.078-11.292-4.078s-8.701 1.486-11.293 4.078c-3.181 3.18-1.755 7.803-.497 11.882 1.192 3.866 1.871 6.502.497 7.876-1.164 1.164-3.518 1.779-6.805 1.779-6.299 0-13.697-2.254-13.771-2.277l-1.911-.588-.589 1.91c-.581 1.884-5.503 18.581.497 24.58 1.281 1.282 2.976 1.931 5.034 1.931 2.203 0 4.565-.729 6.85-1.433 2.001-.617 4.071-1.255 5.671-1.255 1.28 0 1.851.405 2.203.757 3.875 3.877 3.875 13.054 0 16.929-.354.353-.923.759-2.205.759-1.6 0-3.669-.638-5.671-1.255-2.284-.705-4.646-1.433-6.849-1.433-2.059 0-3.752.649-5.033 1.93-6 6.001-1.078 22.699-.497 24.583l.589 1.911 1.912-.589c.073-.023 7.455-2.276 13.771-2.276 3.287 0 5.641.615 6.805 1.78 1.374 1.373.695 4.009-.497 7.874-1.258 4.079-2.684 8.701.497 11.882 2.592 2.591 6.708 4.078 11.293 4.078s8.7-1.486 11.292-4.078c3.181-3.18 1.755-7.803.497-11.881-1.191-3.865-1.87-6.501-.497-7.875 1.164-1.164 3.518-1.779 6.806-1.779 6.299 0 13.697 2.254 13.771 2.276l1.911.588.589-1.91c.581-1.884 5.502-18.583-.497-24.584-1.282-1.28-2.974-1.93-5.033-1.93zm2.24 23.465c-2.789-.725-8.086-1.905-12.981-1.905-4.435 0-7.676.993-9.634 2.951-3.181 3.18-1.755 7.803-.497 11.881 1.191 3.865 1.87 6.501.497 7.875-1.82 1.82-4.984 2.906-8.464 2.906-3.48 0-6.645-1.086-8.465-2.907-1.373-1.373-.695-4.009.497-7.874 1.258-4.079 2.684-8.701-.497-11.881-1.958-1.958-5.199-2.951-9.633-2.951-4.896 0-10.192 1.181-12.982 1.905-1.682-6.372-2.908-15.761.036-18.706.354-.353.923-.759 2.205-.759 1.6 0 3.669.638 5.67 1.255 2.285.705 4.647 1.433 6.85 1.433 2.059 0 3.752-.649 5.033-1.93 5.487-5.487 5.487-17.097 0-22.587-1.281-1.279-2.974-1.928-5.031-1.928-2.202 0-4.564.729-6.85 1.433-2.001.617-4.071 1.255-5.671 1.255-1.282 0-1.853-.406-2.206-.76-2.944-2.944-1.718-12.331-.036-18.702 2.79.725 8.087 1.905 12.982 1.905 4.434 0 7.675-.993 9.633-2.951 3.181-3.181 1.755-7.805.497-11.883-1.192-3.865-1.87-6.501-.497-7.874 1.82-1.82 4.984-2.907 8.465-2.907 3.479 0 6.644 1.086 8.464 2.906 1.373 1.374.694 4.01-.497 7.875-1.258 4.079-2.684 8.702.497 11.883 1.958 1.958 5.199 2.951 9.634 2.951 4.896 0 10.192-1.181 12.982-1.905 1.682 6.371 2.908 15.758-.036 18.702-.354.354-.924.759-2.206.759-1.6 0-3.67-.638-5.672-1.255-2.284-.705-4.646-1.433-6.849-1.433-2.058 0-3.75.649-5.031 1.929-5.487 5.489-5.487 17.099 0 22.586 1.281 1.28 2.974 1.93 5.032 1.93 2.203 0 4.565-.729 6.85-1.433 2.002-.617 4.071-1.255 5.672-1.255 1.281 0 1.851.405 2.204.758 2.944 2.947 1.717 12.336.035 18.708z"/><path fill="#5C7FA0" d="M77.561 96.348s5.322-17.258 0-22.58h-19.756c-4.658-4.656-4.658-15.1 0-19.758 4.656-4.654 15.1 4.658 19.756 0 5.322-5.32 0-22.576 0-22.576s17.258-5.322 22.58 0c4.657 4.654-4.657 15.098 0 19.756 4.657 4.656 15.099 4.656 19.755 0 4.657-4.658-4.657-15.102 0-19.756 5.323-5.322 22.579 0 22.579 0s-5.321 17.256 0 22.576c4.658 4.658 15.1-4.654 19.758 0 4.656 4.658 4.656 15.102 0 19.758h-19.758c-5.321 5.322 0 22.58 0 22.58s-17.256 5.32-22.579 0v-19.758c-4.657-4.658-15.099-4.658-19.755 0s4.657 15.1 0 19.758c-5.323 5.32-22.58 0-22.58 0z"/><path fill="#333" d="M163.646 52.595c-1.281-1.279-2.974-1.928-5.031-1.928-2.203 0-4.565.729-6.85 1.433-2.001.617-4.071 1.255-5.671 1.255-1.282 0-1.853-.406-2.206-.76-3.249-3.249-1.42-14.343.497-20.573l.588-1.911-1.909-.589c-.325-.1-8.037-2.454-14.949-2.454-4.434 0-7.675.993-9.634 2.951-3.181 3.179-1.755 7.801-.497 11.88 1.192 3.865 1.871 6.502.497 7.876-1.82 1.82-4.984 2.906-8.464 2.906-3.479 0-6.643-1.086-8.463-2.906-1.374-1.374-.695-4.011.497-7.876 1.258-4.078 2.684-8.701-.497-11.879-1.958-1.958-5.199-2.951-9.633-2.951-6.912 0-14.625 2.354-14.95 2.454l-1.911.589.589 1.911c1.92 6.227 3.753 17.317.497 20.573-.353.354-.923.759-2.205.759-1.6 0-3.669-.638-5.671-1.255-2.284-.705-4.646-1.433-6.849-1.433-2.058 0-3.75.649-5.031 1.929-2.593 2.592-4.08 6.709-4.08 11.294s1.487 8.701 4.08 11.292c1.281 1.281 2.974 1.93 5.032 1.93 2.202 0 4.564-.729 6.849-1.433 2.001-.617 4.071-1.255 5.671-1.255 1.281 0 1.851.405 2.204.758 3.25 3.25 1.42 14.347-.497 20.577l-.588 1.911 1.91.589c.325.1 8.038 2.454 14.95 2.454 4.434 0 7.675-.993 9.634-2.951 3.18-3.181 1.754-7.804.497-11.882-1.192-3.865-1.871-6.501-.497-7.875 1.82-1.821 4.984-2.908 8.463-2.908 3.479 0 6.644 1.087 8.464 2.908 1.374 1.374.695 4.011-.497 7.875-1.258 4.079-2.684 8.701.497 11.883 1.959 1.958 5.2 2.95 9.634 2.95 6.912 0 14.624-2.354 14.948-2.454l1.912-.589-.59-1.911c-1.92-6.227-3.753-17.32-.497-20.576.354-.353.923-.759 2.205-.759 1.6 0 3.669.638 5.67 1.255 2.285.705 4.647 1.433 6.85 1.433 2.059 0 3.752-.649 5.033-1.93 5.487-5.487 5.487-17.097-.001-22.587zm-2.828 19.758c-.354.353-.923.759-2.205.759-1.6 0-3.669-.638-5.671-1.255-2.284-.705-4.646-1.433-6.849-1.433-2.059 0-3.752.649-5.033 1.93-5.025 5.026-2.389 17.556-1.059 22.602-2.614.672-7.516 1.757-11.887 1.757-3.288 0-5.642-.615-6.806-1.779-1.373-1.374-.694-4.01.497-7.875 1.258-4.079 2.684-8.702-.497-11.883-2.592-2.593-6.708-4.08-11.292-4.08s-8.7 1.487-11.292 4.08c-3.18 3.181-1.754 7.804-.497 11.882 1.192 3.865 1.871 6.501.497 7.875-1.164 1.164-3.517 1.779-6.805 1.779-4.372 0-9.273-1.085-11.888-1.757 1.331-5.045 3.968-17.576-1.059-22.602-1.28-1.281-2.974-1.93-5.032-1.93-2.202 0-4.565.729-6.85 1.433-2.001.617-4.071 1.255-5.67 1.255-1.281 0-1.85-.405-2.204-.759-1.821-1.82-2.908-4.984-2.908-8.463 0-3.48 1.087-6.645 2.908-8.465.353-.353.922-.758 2.203-.758 1.599 0 3.668.638 5.67 1.255 2.285.705 4.647 1.433 6.85 1.433 2.06 0 3.753-.65 5.034-1.931 5.026-5.024 2.39-17.553 1.059-22.599 2.615-.672 7.516-1.757 11.888-1.757 3.288 0 5.641.615 6.805 1.78 1.373 1.372.695 4.008-.497 7.872-1.258 4.079-2.684 8.702.497 11.883 2.592 2.592 6.708 4.078 11.292 4.078s8.7-1.486 11.292-4.078c3.181-3.181 1.755-7.805.497-11.884-1.191-3.864-1.87-6.5-.497-7.872 1.165-1.165 3.518-1.78 6.806-1.78 4.372 0 9.272 1.085 11.887 1.757-1.33 5.045-3.967 17.574 1.059 22.598 1.281 1.281 2.975 1.931 5.034 1.931 2.203 0 4.565-.729 6.85-1.433 2.001-.617 4.071-1.255 5.671-1.255 1.28 0 1.851.405 2.203.757 3.874 3.88 3.874 13.057-.001 16.932z"/><path fill="#AF8E8E" d="M12.646 96.348s17.257-5.322 22.58 0v19.756s15.1 4.656 19.756 0c4.656-4.656-4.657-15.1 0-19.756 5.322-5.322 22.578 0 22.578 0s-5.322 17.256 0 22.578c4.657 4.656 15.101-4.658 19.758 0 4.656 4.656 4.656 15.1 0 19.756-4.657 4.658-15.101-4.656-19.758 0-5.322 5.322 0 22.58 0 22.58s-17.256 5.322-22.578 0c-4.657-4.656 4.656-15.102 0-19.758-4.657-4.654-15.1-4.654-19.756 0v19.758c-5.322 5.322-22.58 0-22.58 0v-64.914z"/><path fill="#333" d="M98.733 117.512c-1.281-1.281-2.975-1.931-5.034-1.931-2.203 0-4.565.729-6.85 1.433-2.001.617-4.071 1.255-5.671 1.255-1.281 0-1.851-.405-2.204-.758-3.25-3.25-1.42-14.345.497-20.575l.588-1.911-1.91-.589c-.325-.1-8.037-2.454-14.948-2.454-4.434 0-7.675.993-9.633 2.951-3.181 3.18-1.755 7.803-.497 11.882 1.192 3.865 1.87 6.5.497 7.874-1.82 1.82-4.984 2.906-8.464 2.906-3.479 0-6.644-1.086-8.464-2.906-1.374-1.374-.695-4.01.497-7.875 1.258-4.079 2.684-8.701-.497-11.881-1.958-1.958-5.199-2.951-9.633-2.951-6.912 0-14.448 2.354-14.773 2.454l-1.234.436v67.867l1.234.435c.325.101 7.949 2.454 14.861 2.454 4.434 0 7.631-.993 9.589-2.951 3.181-3.18 1.732-7.804.475-11.882-1.192-3.866-1.881-6.502-.508-7.875 1.82-1.819 4.979-2.905 8.458-2.905 3.48 0 6.642 1.086 8.462 2.904 1.373 1.373.693 4.01-.499 7.875-1.258 4.079-2.685 8.703.496 11.883 1.958 1.959 5.199 2.951 9.633 2.951 6.911 0 14.623-2.354 14.948-2.454l1.911-.589-.589-1.911c-1.92-6.228-3.753-17.32-.497-20.577.353-.353.923-.758 2.204-.758 1.6 0 3.669.638 5.67 1.255 2.285.705 4.646 1.434 6.85 1.434h.001c2.06 0 3.753-.649 5.033-1.931 5.488-5.489 5.488-17.098.001-22.585zm-2.829 19.756c-.353.354-.923.759-2.205.759-1.6 0-3.669-.638-5.671-1.256-2.284-.704-4.646-1.433-6.849-1.433-2.058 0-3.751.649-5.032 1.93-5.026 5.026-2.389 17.557-1.059 22.602-2.614.672-7.515 1.758-11.887 1.758-3.287 0-5.64-.615-6.805-1.779-1.374-1.374-.695-4.01.497-7.876 1.258-4.079 2.683-8.702-.497-11.883-2.592-2.59-6.708-4.075-11.292-4.075s-8.7 1.485-11.292 4.076c-3.181 3.18-1.755 7.804-.497 11.882 1.192 3.866 1.871 6.502.497 7.876-1.165 1.164-3.341 1.779-6.628 1.779-4.652 0-10.184-1.229-12.184-1.881v-61.884c2-.652 7.521-1.88 12.184-1.88 3.288 0 5.552.615 6.717 1.779 1.374 1.374.65 4.01-.541 7.875-1.258 4.079-2.706 8.701.475 11.881 2.592 2.592 6.697 4.078 11.281 4.078 4.585 0 8.695-1.486 11.287-4.078 3.18-3.18 1.752-7.803.495-11.881-1.192-3.865-1.872-6.501-.499-7.875 1.165-1.164 3.517-1.779 6.804-1.779 4.371 0 9.271 1.085 11.886 1.757-1.331 5.045-3.968 17.574 1.058 22.601 1.281 1.28 2.974 1.929 5.032 1.929 2.203 0 4.565-.729 6.85-1.433 2.001-.617 4.071-1.255 5.671-1.255 1.282 0 1.852.405 2.205.759 3.875 3.875 3.875 13.051-.001 16.927z"/><path fill="#AF8E8E" d="M77.561 226.176s5.322-17.258 0-22.58c-4.656-4.656-15.1 4.658-19.756 0-4.658-4.656-4.658-15.098 0-19.756 4.656-4.656 15.1 4.658 19.756 0 5.322-5.322 0-22.578 0-22.578s17.258-5.322 22.58 0v19.756s15.099 4.656 19.755 0v-19.756c5.323-5.322 22.579 0 22.579 0s-5.321 17.256 0 22.578c4.658 4.658 15.1-4.656 19.758 0 4.656 4.658 4.656 15.1 0 19.756-4.658 4.658-15.1-4.656-19.758 0-5.321 5.322 0 22.58 0 22.58h-64.914z"/><path fill="#333" d="M163.646 182.426c-1.281-1.28-2.974-1.93-5.032-1.93-2.203 0-4.565.729-6.85 1.433-2.001.618-4.07 1.256-5.671 1.256-1.281 0-1.852-.405-2.205-.759-3.249-3.25-1.42-14.346.497-20.575l.588-1.911-1.909-.589c-.325-.101-8.037-2.454-14.949-2.454-4.434 0-7.675.992-9.634 2.951-3.181 3.18-1.755 7.803-.497 11.881 1.192 3.865 1.871 6.501.497 7.875-1.82 1.819-4.984 2.906-8.464 2.906-3.479 0-6.643-1.087-8.463-2.906-1.374-1.373-.695-4.01.497-7.874 1.258-4.079 2.684-8.702-.497-11.882-1.958-1.958-5.199-2.951-9.633-2.951-6.912 0-14.625 2.354-14.95 2.454l-1.911.589.589 1.912c1.92 6.226 3.753 17.317.497 20.574-.353.354-.923.759-2.204.759-1.6 0-3.669-.638-5.671-1.256-2.284-.704-4.646-1.433-6.849-1.433-2.058 0-3.751.649-5.031 1.93-2.593 2.593-4.08 6.708-4.08 11.293 0 4.584 1.487 8.7 4.079 11.291 1.281 1.281 2.974 1.931 5.033 1.931 2.203 0 4.565-.729 6.85-1.434 2.001-.617 4.071-1.255 5.67-1.255 1.281 0 1.85.405 2.203.758 3.25 3.251 1.42 14.259-.497 20.489l-.796 2.501h70.332l-.799-2.501c-1.92-6.228-3.753-17.276-.497-20.533.354-.353.923-.735 2.204-.735 1.6 0 3.669.648 5.67 1.266 2.284.705 4.646 1.438 6.85 1.438l.001.003c2.059 0 3.753-.647 5.033-1.929 5.486-5.487 5.487-17.094-.001-22.583zm-2.828 19.756c-.354.354-.924.759-2.206.759-1.6 0-3.669-.638-5.671-1.256-2.284-.704-4.646-1.433-6.849-1.433-2.059 0-3.751.562-5.032 1.842-4.834 4.835-2.579 16.906-1.216 21.906h-59.654c1.363-5 3.619-17.071-1.216-21.906-1.28-1.28-2.973-1.886-5.031-1.886-2.203 0-4.565.751-6.849 1.454-2.001.619-4.071 1.268-5.671 1.268-1.281 0-1.851-.4-2.205-.754-1.821-1.82-2.908-4.981-2.908-8.46 0-3.479 1.087-6.642 2.908-8.463.353-.353.922-.758 2.203-.758 1.6 0 3.669.639 5.67 1.256 2.284.705 4.647 1.434 6.85 1.434 2.059 0 3.752-.649 5.033-1.931 5.026-5.026 2.39-17.555 1.059-22.6 2.615-.672 7.516-1.758 11.888-1.758 3.288 0 5.641.615 6.805 1.779 1.374 1.373.695 4.01-.497 7.874-1.258 4.079-2.684 8.702.497 11.882 2.592 2.592 6.708 4.078 11.292 4.078s8.7-1.486 11.292-4.078c3.181-3.18 1.755-7.803.497-11.882-1.191-3.864-1.87-6.501-.497-7.874 1.165-1.164 3.518-1.779 6.806-1.779 4.372 0 9.272 1.085 11.887 1.758-1.33 5.045-3.967 17.573 1.059 22.6 1.281 1.281 2.975 1.931 5.033 1.931 2.203 0 4.565-.729 6.85-1.433 2.002-.618 4.071-1.256 5.671-1.256 1.281 0 1.851.405 2.204.758 3.873 3.877 3.873 13.053-.002 16.928z"/><path fill="#5C7FA0" d="M142.475 161.262s5.322-17.258 0-22.58c-4.656-4.656-15.1 4.658-19.756 0-4.657-4.656-4.657-15.1 0-19.756 4.656-4.658 15.1 4.656 19.756 0 5.322-5.322 0-22.578 0-22.578s17.258-5.322 22.579 0v19.756s15.101 4.656 19.757 0-4.656-15.1 0-19.756c5.322-5.322 22.58 0 22.58 0s-5.322 17.256 0 22.578c4.656 4.656 15.098-4.658 19.755 0 4.657 4.656 4.657 15.1 0 19.756-4.657 4.658-15.099-4.656-19.755 0-5.322 5.322 0 22.58 0 22.58s-17.258 5.322-22.58 0v-19.758s-15.1-4.656-19.757 0 4.657 15.102 0 19.758c-5.322 5.322-22.579 0-22.579 0z"/><path fill="#333" d="M228.56 117.512c-1.28-1.281-2.975-1.931-5.033-1.931-2.203 0-4.564.729-6.85 1.433-2.001.617-4.069 1.255-5.669 1.255-1.28 0-1.85-.405-2.203-.758-3.25-3.25-1.42-14.345.497-20.575l.588-1.911-1.909-.589c-.325-.1-8.038-2.454-14.95-2.454-4.435 0-7.676.993-9.634 2.951-3.181 3.18-1.755 7.803-.497 11.881 1.191 3.865 1.87 6.501.497 7.875-1.82 1.82-4.984 2.906-8.464 2.906-3.48 0-6.645-1.086-8.465-2.907-1.373-1.373-.695-4.009.497-7.874 1.258-4.079 2.684-8.701-.497-11.881-1.958-1.958-5.199-2.951-9.633-2.951-6.912 0-14.625 2.354-14.95 2.454l-1.909.589.588 1.911c1.917 6.23 3.747 17.325.497 20.575-.354.353-.923.758-2.203.758-1.6 0-3.669-.638-5.671-1.255-2.284-.705-4.646-1.433-6.849-1.433-2.06 0-3.753.649-5.033 1.93-2.592 2.592-4.079 6.708-4.079 11.292s1.487 8.7 4.079 11.292c1.28 1.281 2.974 1.931 5.033 1.931 2.202 0 4.564-.729 6.85-1.434 2.001-.617 4.07-1.255 5.67-1.255 1.28 0 1.85.405 2.203.758 3.25 3.25 1.42 14.347-.497 20.577l-.588 1.911 1.909.589c.325.101 8.038 2.454 14.95 2.454 4.434 0 7.675-.993 9.633-2.951 3.181-3.18 1.755-7.804.497-11.883-1.192-3.865-1.871-6.501-.497-7.875 1.82-1.819 4.984-2.906 8.465-2.906 3.479 0 6.644 1.087 8.464 2.906 1.373 1.373.694 4.01-.497 7.876-1.258 4.078-2.684 8.702.497 11.882 1.958 1.959 5.199 2.951 9.634 2.951 6.912 0 14.625-2.354 14.949-2.454l1.91-.59-.588-1.91c-1.917-6.23-3.747-17.327-.497-20.577.354-.353.923-.758 2.203-.758 1.6 0 3.668.638 5.669 1.255 2.284.705 4.646 1.434 6.849 1.434h.001c2.06 0 3.753-.649 5.033-1.931 2.592-2.592 4.079-6.707 4.079-11.292s-1.488-8.7-4.079-11.291zm-2.829 19.756c-.354.354-.923.759-2.205.759-1.6 0-3.669-.638-5.671-1.256-2.284-.704-4.646-1.433-6.848-1.433-2.059 0-3.751.649-5.031 1.93-5.026 5.026-2.39 17.556-1.059 22.602-2.615.672-7.516 1.758-11.888 1.758-3.288 0-5.641-.615-6.806-1.779-1.373-1.373-.694-4.01.497-7.876 1.258-4.078 2.684-8.702-.497-11.882-2.592-2.592-6.707-4.078-11.292-4.078s-8.701 1.486-11.293 4.078c-3.181 3.18-1.755 7.804-.497 11.883 1.192 3.865 1.871 6.501.497 7.875-1.164 1.164-3.518 1.779-6.805 1.779-4.372 0-9.273-1.086-11.888-1.758 1.331-5.045 3.968-17.575-1.059-22.602-1.28-1.28-2.974-1.93-5.031-1.93-2.202 0-4.564.729-6.85 1.433-2.001.618-4.07 1.256-5.67 1.256-1.282 0-1.852-.405-2.205-.759-1.82-1.82-2.907-4.984-2.907-8.464s1.087-6.644 2.907-8.464c.354-.354.923-.759 2.205-.759 1.6 0 3.669.638 5.67 1.255 2.284.705 4.646 1.433 6.85 1.433 2.058 0 3.751-.649 5.031-1.93 5.026-5.026 2.39-17.556 1.059-22.601 2.611-.672 7.506-1.757 11.888-1.757 3.287 0 5.641.615 6.805 1.78 1.374 1.373.695 4.009-.497 7.874-1.258 4.079-2.684 8.701.497 11.882 2.592 2.591 6.708 4.078 11.293 4.078s8.7-1.486 11.292-4.078c3.181-3.18 1.755-7.803.497-11.881-1.191-3.865-1.87-6.501-.497-7.875 1.164-1.164 3.518-1.779 6.806-1.779 4.372 0 9.272 1.085 11.888 1.757-1.331 5.045-3.968 17.574 1.059 22.6 1.28 1.281 2.973 1.93 5.031 1.93 2.202 0 4.564-.729 6.849-1.433 2.001-.617 4.07-1.255 5.67-1.255 1.281 0 1.852.405 2.205.759 1.82 1.82 2.907 4.984 2.907 8.463s-1.086 6.644-2.907 8.465z"/><path fill="#00FFEA" d="M142.475 161.262s-17.256-5.322-22.579 0v19.756c-4.657 4.656-15.099 4.656-19.755 0s4.657-15.1 0-19.756c-5.322-5.322-22.58 0-22.58 0s-5.322-17.258 0-22.58c4.657-4.656 15.1 4.658 19.758 0 4.656-4.656 4.656-15.1 0-19.756-4.658-4.658-15.101 4.656-19.758 0-5.322-5.322 0-22.578 0-22.578s17.258 5.32 22.58 0v-19.758s15.099-4.658 19.755 0v19.758c5.323 5.32 22.579 0 22.579 0s5.322 17.256 0 22.578c-4.656 4.656-15.1-4.658-19.756 0-4.657 4.656-4.657 15.1 0 19.756 4.656 4.658 15.1-4.656 19.756 0 5.322 5.322 0 22.58 0 22.58z"/><path fill="#333" d="M138.857 135.838c-2.127 0-4.453.717-6.702 1.411-2.037.628-4.143 1.277-5.817 1.277-1.128 0-1.94-.287-2.559-.905-1.912-1.912-3.054-5.208-3.054-8.817s1.142-6.906 3.054-8.817c.618-.618 1.431-.905 2.559-.905 1.675 0 3.78.649 5.817 1.278 2.249.694 4.575 1.411 6.702 1.411 1.921 0 3.495-.6 4.678-1.783 5.794-5.794.945-22.226.373-24.081l-.442-1.434-1.434.442c-.074.023-7.526 2.298-13.917 2.298-3.423 0-5.899-.666-7.159-1.925-1.689-1.69-.688-4.938.373-8.376 1.216-3.944 2.595-8.414-.373-11.382-2.498-2.5-6.485-3.933-10.938-3.933s-8.44 1.434-10.939 3.933c-2.967 2.968-1.588 7.438-.373 11.381 1.061 3.438 2.063 6.687.373 8.376-1.26 1.26-3.735 1.926-7.159 1.926-6.377 0-13.844-2.275-13.919-2.298l-1.433-.441-.442 1.433c-.572 1.854-5.42 18.287.373 24.081 1.184 1.184 2.758 1.784 4.678 1.783 2.127 0 4.453-.717 6.702-1.411 2.037-.628 4.143-1.278 5.818-1.278 1.128 0 1.941.288 2.559.905 4.037 4.038 4.037 13.597 0 17.635-.618.618-1.431.905-2.559.905-1.675 0-3.782-.649-5.818-1.277-2.249-.694-4.575-1.411-6.702-1.411-1.921 0-3.495.6-4.678 1.783-5.793 5.794-.945 22.228-.373 24.083l.442 1.433 1.433-.441c.075-.023 7.541-2.299 13.918-2.299 3.423 0 5.898.666 7.159 1.926 1.689 1.689.688 4.937-.373 8.375-1.216 3.944-2.595 8.414.373 11.381 2.499 2.499 6.485 3.932 10.938 3.932s8.439-1.433 10.938-3.932c2.968-2.967 1.589-7.437.373-11.381-1.061-3.438-2.063-6.686-.373-8.375 1.261-1.26 3.736-1.926 7.159-1.926 6.377 0 13.843 2.275 13.918 2.299l1.433.441.442-1.433c.572-1.855 5.421-18.289-.373-24.083-1.181-1.184-2.755-1.784-4.676-1.784zm2.589 23.573c-2.598-.697-8.191-2.015-13.331-2.015-4.297 0-7.419.943-9.28 2.805-2.967 2.967-1.589 7.437-.373 11.38 1.061 3.438 2.063 6.687.373 8.376-1.912 1.911-5.208 3.053-8.817 3.053s-6.905-1.142-8.817-3.053c-1.689-1.689-.688-4.937.373-8.375 1.216-3.944 2.595-8.414-.373-11.381-1.861-1.861-4.983-2.805-9.28-2.805-5.14 0-10.734 1.318-13.333 2.015-1.45-5.352-3.464-16.171.033-19.669.617-.617 1.43-.904 2.557-.904 1.675 0 3.781.649 5.818 1.277 2.25.694 4.575 1.411 6.703 1.411 1.922 0 3.497-.601 4.68-1.784 5.213-5.214 5.213-16.663 0-21.877-1.184-1.184-2.758-1.784-4.68-1.784-2.127 0-4.453.717-6.703 1.411-2.037.628-4.143 1.277-5.818 1.277-1.127 0-1.94-.287-2.557-.904-3.492-3.493-1.48-14.314-.032-19.667 2.599.697 8.193 2.014 13.332 2.014 4.297 0 7.419-.943 9.28-2.804 2.967-2.968 1.588-7.438.373-11.381-1.061-3.438-2.063-6.687-.373-8.376 1.912-1.913 5.208-3.054 8.817-3.054s6.905 1.142 8.817 3.054c1.689 1.69.688 4.938-.373 8.376-1.216 3.943-2.594 8.413.373 11.382 1.861 1.86 4.983 2.804 9.28 2.804 5.14 0 10.733-1.317 13.331-2.014 1.448 5.353 3.46 16.174-.032 19.667-.617.617-1.43.904-2.557.904-1.675 0-3.781-.649-5.818-1.277-2.249-.694-4.574-1.411-6.701-1.411-1.922 0-3.496.6-4.68 1.784-2.499 2.499-3.932 6.485-3.932 10.938s1.433 8.44 3.932 10.938c1.184 1.184 2.758 1.784 4.68 1.784 2.127 0 4.452-.717 6.701-1.411 2.037-.628 4.144-1.277 5.818-1.277 1.127 0 1.939.287 2.557.904 3.492 3.493 1.481 14.316.032 19.669z"/><path fill="#5C7FA0" d="M117.973 106.34c-2.282-3.477-7.543 1.146-7.933 1.49-.789-.703-5.636-4.799-7.806-1.49-3.557 5.42 7.937 13.592 7.937 13.592.784-.368 11.366-8.157 7.802-13.592z"/></svg>