<svg xmlns="http://www.w3.org/2000/svg" width="73" height="73" viewBox="0 0 73 73"><circle fill="#814CB6" cx="36.483" cy="36.221" r="36.22"/><path fill="#fff" d="M47.586 28.29s-3.211-3.832-7.879-1.323c-4.668 2.51-2.888 6.692-2.888 6.692s-8.525-.081-13.167-7.124c0 0-3.238 4.479 1.754 8.554 0 0-1.484.189-2.915-.782 0 0-.314 4.736 5.003 6.678 0 0-.875.392-2.764.121 0 0 1.242 4.049 5.749 4.506 0 0-1.849 2.892-9.553 2.537 0 0 10.024 7.426 20.966-.242 0 0 7.771-5.396 7.313-15.381 0 0 2.294-1.754 2.834-2.94 0 0-1.297.7-3.131.565 0 0 2.375-1.618 2.564-3.21.001-.001-2.159 1.428-3.886 1.349z"/></svg>