<svg xmlns="http://www.w3.org/2000/svg" width="73" height="73" viewBox="0 0 73 73"><circle fill="#44A7D2" cx="36.483" cy="36.221" r="36.22"/><path fill="#fff" d="M21.108 26l.625 6h22.833l-.529 5h-14.699l.411 6h13.756l-.636 8.413-6.401 1.74-6.413-1.757-.458-5.396h-6.313l1.004 10.049 12.107 3.605 12.459-2.814 3.003-30.84zm7.272-5.047c.283 0 .578-.051.883-.15s.604-.261.899-.48l1.136 1.608c-.4.315-.862.563-1.389.741-.524.18-1.098.269-1.719.269-.683 0-1.294-.106-1.83-.315-.535-.21-.992-.51-1.365-.899s-.659-.854-.859-1.396c-.2-.541-.3-1.139-.3-1.791s.102-1.254.308-1.807c.205-.552.497-1.029.876-1.435.378-.404.837-.72 1.379-.946s1.15-.339 1.823-.339c.641 0 1.213.092 1.72.275.504.185.956.444 1.356.78l-1.089 1.515c-.284-.222-.585-.381-.907-.481-.32-.099-.628-.149-.922-.149-.284 0-.542.047-.772.142-.231.095-.43.245-.593.45-.163.205-.292.471-.386.797-.095.326-.143.726-.143 1.198 0 .463.051.849.15 1.16.101.31.233.557.401.741.169.184.369.314.6.395.233.077.48.117.743.117zm7.524.189c.409 0 .742-.063.994-.188.252-.127.377-.321.377-.585 0-.136-.025-.254-.078-.354-.053-.1-.15-.191-.292-.275-.143-.085-.343-.168-.6-.252-.258-.084-.597-.185-1.018-.3-.378-.105-.728-.229-1.049-.371s-.594-.316-.82-.52c-.227-.206-.402-.447-.528-.727-.126-.278-.189-.603-.189-.971s.078-.71.235-1.025c.158-.315.393-.588.703-.819.309-.231.693-.412 1.151-.544.457-.132.985-.197 1.585-.197.716 0 1.357.092 1.925.275.566.185 1.023.407 1.371.671l-1.01 1.482c-.305-.2-.654-.355-1.049-.465-.395-.11-.792-.167-1.191-.167-.789 0-1.182.212-1.182.632 0 .105.025.197.078.275.053.079.149.159.292.237.142.079.341.163.599.252.258.09.59.192 1.001.309.412.114.779.241 1.104.379.328.137.609.304.846.505.236.199.418.44.545.725.125.285.189.631.189 1.041 0 .463-.109.867-.324 1.214-.217.348-.504.637-.869.868-.361.232-.781.405-1.26.521-.48.116-.987.174-1.523.174-.82 0-1.539-.111-2.154-.331-.615-.222-1.144-.521-1.585-.898l1.262-1.389c.326.252.695.451 1.104.599.414.145.865.219 1.36.219zm8.676 0c.41 0 .74-.063.992-.188.254-.127.381-.321.381-.585 0-.136-.027-.254-.08-.354-.053-.1-.15-.191-.293-.275-.141-.085-.34-.168-.598-.252s-.598-.185-1.018-.3c-.379-.105-.729-.229-1.051-.371-.32-.142-.594-.316-.818-.52-.227-.206-.402-.447-.529-.727-.125-.278-.189-.603-.189-.971s.08-.71.236-1.025c.158-.315.393-.588.703-.819.309-.231.693-.412 1.15-.544.459-.132.986-.197 1.586-.197.715 0 1.357.092 1.924.275.568.185 1.027.407 1.373.671l-1.008 1.482c-.307-.2-.656-.355-1.051-.465-.395-.11-.791-.167-1.191-.167-.789 0-1.182.212-1.182.632 0 .105.025.197.078.275.053.079.15.159.291.237.143.079.342.163.6.252.258.09.592.192 1.002.309.41.114.779.241 1.104.379.326.137.607.304.846.505.236.199.416.44.543.725.127.285.189.631.189 1.041 0 .463-.107.867-.324 1.214-.215.348-.504.637-.867.868-.361.232-.783.405-1.26.521-.48.116-.988.174-1.523.174-.82 0-1.537-.111-2.152-.331-.615-.222-1.145-.521-1.586-.898l1.262-1.389c.326.252.693.451 1.105.599.408.145.861.219 1.355.219z"/></svg>