<svg xmlns="http://www.w3.org/2000/svg" width="73" height="73" viewBox="0 0 73 73"><circle fill="#CA754A" cx="36.295" cy="36.222" r="36.221"/><path fill="#fff" d="M28.605 38l-.521-6h22.675l.518-6.38-29.964.204 1.723 18.255 20.728-.063-.61 7.519-6.718 1.863-6.778-1.626-.454-4.772h-5.895l.858 9.084 12.338 3.27 12.329-3.334 1.442-18.02zm-6.618-15.583v-9.872l2.128-.213v3.739c.293-.311.612-.549.959-.713.345-.162.719-.245 1.117-.245.629 0 1.111.183 1.444.552.332.368.499.889.499 1.563v5.188h-2.129v-4.936c0-.293-.06-.499-.18-.619-.12-.119-.282-.18-.485-.18-.222 0-.431.076-.626.227s-.395.359-.599.625v4.883h-2.128zm13.77-.412c-.284.178-.628.329-1.031.453-.404.123-.836.186-1.297.186-.932 0-1.622-.238-2.069-.712-.448-.474-.672-1.12-.672-1.936v-3.181h-1.477v-1.464h1.477v-1.529l2.128-.253v1.782h2.276l-.213 1.464h-2.063v3.181c0 .355.081.605.24.751.16.146.413.22.759.22.248 0 .475-.028.679-.086s.389-.136.559-.233l.704 1.357zm.993.412v-7.065h1.556l.148.679c.221-.301.445-.529.672-.685s.494-.232.805-.232c.266 0 .492.065.678.2.188.133.32.345.4.637.213-.248.447-.449.705-.604.256-.155.539-.232.852-.232.504 0 .877.163 1.117.491.238.329.359.855.359 1.584v5.229h-1.824v-4.989c0-.239-.021-.409-.064-.512-.045-.103-.135-.153-.268-.153-.115 0-.23.031-.346.094-.115.062-.244.181-.385.359v5.201h-1.49v-4.989c0-.239-.021-.409-.061-.512-.041-.103-.125-.153-.26-.153-.123 0-.246.038-.365.112-.121.076-.246.202-.379.38v5.162h-1.85zm11.537-2.222c0 .284.08.483.24.6.158.114.381.172.664.172.178 0 .352-.02.52-.06.168-.041.328-.091.479-.153l.506 1.425c-.24.123-.527.231-.865.325-.338.092-.732.14-1.184.14-.869 0-1.502-.246-1.896-.739-.395-.491-.592-1.155-.592-1.989v-5.92h-2.076v-1.45h4.205v7.649z"/></svg>