<svg xmlns="http://www.w3.org/2000/svg" width="235" height="242" viewBox="0 0 235 242"><path fill="#333" d="M4.725 167.688l-.646-93.809 66.32-66.32 94.132.324 66.321 66.32.06 93.869-66.32 66.319-93.547-.383z"/><circle fill="#5C7FA0" cx="118.819" cy="122.354" r="82.705"/><path fill="#333" d="M118.819 207.061c-46.707 0-84.705-37.999-84.705-84.707 0-46.707 37.999-84.705 84.705-84.705 46.706 0 84.705 37.999 84.705 84.705 0 46.708-37.999 84.707-84.705 84.707zm0-165.413c-44.501 0-80.705 36.204-80.705 80.705 0 44.502 36.204 80.707 80.705 80.707s80.705-36.205 80.705-80.707c0-44.5-36.204-80.705-80.705-80.705zm-1.01 163.287c-26.643-45.229-25.918-87.689-20.619-115.345 5.743-29.969 17.617-48.966 18.12-49.76l3.38 2.139c-.119.189-12.023 19.268-17.602 48.536-5.135 26.941-5.804 68.31 20.168 112.4l-3.447 2.03zm2.548-.46l-3.508-1.922c24.627-44.942 22.637-86.331 16.632-113.137-6.507-29.042-18.94-47.621-19.065-47.806l3.312-2.243c.527.778 12.986 19.397 19.657 49.174 6.156 27.479 8.199 69.897-17.028 115.934zm-8.515 2.316c-34.383-26.245-51.504-54.556-50.89-84.145 1.009-48.558 48.917-82.623 50.957-84.049l2.293 3.277c-.483.338-48.298 34.36-49.251 80.875-.579 28.234 16.014 55.44 49.317 80.861l-2.426 3.181zm11.927 0l-2.428-3.18c33.312-25.428 49.904-52.64 49.317-80.882-.967-46.547-48.768-80.517-49.25-80.854l2.293-3.277c2.039 1.426 49.947 35.491 50.957 84.049.614 29.588-16.508 57.899-50.889 84.144z"/><path fill="#0F87CD" d="M38 124h163"/><path fill="#333" d="M38 122h163v4h-163zm79.621-34.578c-39.927 0-66.77-10.692-67.17-10.855l1.513-3.703c.588.24 59.629 23.695 132.859-.051l1.234 3.805c-24.985 8.101-48.366 10.804-68.436 10.804zm-64.627 87.656l-1.233-3.805c74.682-24.215 135.004-.194 135.605.051l-1.513 3.703c-.588-.239-59.627-23.695-132.859.051z"/><path fill="#AF8E8E" d="M233.274 121.85c0 11.865-9.628 21.488-21.499 21.488s-21.498-9.623-21.498-21.488c0-11.877 9.627-21.5 21.498-21.5s21.499 9.623 21.499 21.5z"/><path fill="#333" d="M211.775 145.338c-12.957 0-23.498-10.537-23.498-23.488 0-12.958 10.541-23.5 23.498-23.5s23.499 10.542 23.499 23.5c0 12.951-10.542 23.488-23.499 23.488zm0-42.988c-10.751 0-19.498 8.748-19.498 19.5 0 10.746 8.747 19.488 19.498 19.488 10.752 0 19.499-8.742 19.499-19.488 0-10.753-8.747-19.5-19.499-19.5z"/><path d="M206.113 126.197c.57 0 1.051-.117 1.439-.348.391-.232.703-.537.941-.908.239-.373.408-.799.508-1.281.099-.484.148-.982.148-1.492v-6.316h2.39v6.316c0 .848-.102 1.645-.306 2.389-.204.746-.523 1.395-.958 1.955-.438.557-1 1-1.684 1.326-.688.328-1.508.486-2.462.486-.988 0-1.828-.17-2.521-.512-.69-.344-1.253-.795-1.684-1.359-.43-.566-.74-1.219-.934-1.967-.191-.742-.287-1.518-.287-2.318v-6.316h2.407v6.316c0 .521.05 1.023.149 1.51.099.482.266.906.506 1.281.237.371.549.672.933.896.386.229.858.342 1.415.342zm15.232-7.101c-.081-.082-.229-.191-.443-.33-.216-.143-.478-.277-.786-.41-.309-.135-.643-.246-1.004-.34-.359-.096-.727-.141-1.098-.141-.664 0-1.157.123-1.484.365-.324.246-.488.588-.488 1.031 0 .256.062.465.184.637.123.17.299.316.533.443.23.131.525.244.88.35s.765.215 1.23.33c.604.162 1.153.338 1.649.527.494.184.912.416 1.256.695.342.279.607.613.793 1.002.187.391.279.873.279 1.441 0 .664-.124 1.229-.375 1.701-.25.469-.584.852-1.002 1.143-.421.291-.908.502-1.468.637-.558.133-1.14.201-1.743.201-.932 0-1.851-.141-2.758-.42-.907-.277-1.721-.674-2.442-1.186l1.065-2.076c.104.104.291.24.565.41.274.168.597.334.969.504.372.172.786.313 1.239.428.453.119.919.176 1.396.176 1.324 0 1.989-.424 1.989-1.273 0-.279-.077-.512-.228-.699-.152-.186-.365-.35-.646-.486-.279-.141-.617-.27-1.012-.383-.396-.119-.838-.24-1.326-.367-.594-.164-1.106-.34-1.543-.533-.438-.191-.801-.416-1.092-.674-.29-.256-.508-.557-.653-.906-.146-.346-.22-.76-.22-1.238 0-.627.117-1.186.35-1.676.233-.486.557-.895.969-1.221s.894-.572 1.438-.74c.548-.168 1.136-.254 1.763-.254.873 0 1.677.137 2.408.41.732.273 1.373.596 1.919.967l-1.063 1.955z" fill="#fff"/><path fill="#AF8E8E" d="M45.068 121.85c0 11.865-9.628 21.488-21.5 21.488-11.871 0-21.498-9.623-21.498-21.488 0-11.877 9.626-21.5 21.498-21.5 11.871 0 21.5 9.623 21.5 21.5z"/><path fill="#333" d="M23.568 145.338c-12.957 0-23.498-10.537-23.498-23.488 0-12.958 10.541-23.5 23.498-23.5 12.958 0 23.5 10.542 23.5 23.5 0 12.951-10.542 23.488-23.5 23.488zm0-42.988c-10.751 0-19.498 8.748-19.498 19.5 0 10.746 8.747 19.488 19.498 19.488 10.752 0 19.5-8.742 19.5-19.488 0-10.753-8.748-19.5-19.5-19.5z"/><path d="M13.138 128.285v-12.881h8.654v2.195h-6.149v3.32h5.116v2.031h-5.116v5.334h-2.505zm10.358 0v-12.881h5.697c.593 0 1.139.125 1.641.373.501.248.935.572 1.297.98.363.406.645.861.853 1.377.206.514.307 1.033.307 1.551 0 .836-.207 1.594-.625 2.277s-.981 1.176-1.695 1.479l3.028 4.844h-2.83l-2.702-4.316h-2.467v4.316h-2.504zm2.504-6.515h3.138c.229 0 .444-.051.644-.158.199-.109.37-.258.517-.445.145-.189.261-.412.344-.664.085-.254.128-.525.128-.816 0-.301-.049-.58-.144-.834-.098-.254-.229-.475-.392-.662s-.351-.332-.562-.434c-.212-.104-.427-.156-.646-.156h-3.027v4.169z" fill="#fff"/><path fill="#AF8E8E" d="M157.29 106.652c0 11.865-9.627 21.488-21.499 21.488-11.871 0-21.498-9.623-21.498-21.488 0-11.877 9.627-21.5 21.498-21.5 11.872 0 21.499 9.623 21.499 21.5z"/><path fill="#333" d="M135.791 130.141c-12.957 0-23.498-10.537-23.498-23.488 0-12.958 10.541-23.5 23.498-23.5s23.499 10.542 23.499 23.5c0 12.951-10.542 23.488-23.499 23.488zm0-42.989c-10.751 0-19.498 8.748-19.498 19.5 0 10.746 8.747 19.488 19.498 19.488 10.752 0 19.499-8.742 19.499-19.488 0-10.752-8.747-19.5-19.499-19.5z"/><path d="M124.216 106.543c0-.756.133-1.504.401-2.242.268-.736.654-1.396 1.159-1.98.508-.58 1.126-1.051 1.859-1.412.731-.361 1.571-.541 2.513-.541 1.105 0 2.059.25 2.87.748.809.504 1.405 1.154 1.788 1.957l-1.85 1.275c-.139-.352-.321-.645-.541-.885-.222-.238-.463-.426-.723-.566-.263-.141-.533-.238-.813-.303-.278-.064-.549-.098-.802-.098-.569 0-1.071.123-1.501.367-.431.244-.788.561-1.074.949-.284.391-.5.834-.645 1.328-.145.492-.219.984-.219 1.473 0 .547.085 1.074.253 1.578.169.508.408.953.716 1.334.309.385.678.695 1.107.926.43.234.901.35 1.414.35.266 0 .541-.033.82-.105.278-.07.549-.18.811-.33.262-.154.504-.346.725-.586.221-.236.4-.523.541-.863l1.971 1.137c-.186.463-.456.875-.811 1.229-.355.355-.76.652-1.213.898s-.93.43-1.432.557c-.498.129-.994.193-1.481.193-.862 0-1.649-.186-2.364-.561-.716-.369-1.332-.855-1.851-1.457-.517-.598-.919-1.275-1.204-2.037-.283-.765-.424-1.54-.424-2.333zm14.83-1.658v7.939h-2.408v-12.387h1.866l6.456 8.129v-8.113h2.408v12.371h-1.955l-6.367-7.939z" fill="#fff"/><path fill="#00FFEA" d="M167.812 151.074c0 11.865-9.628 21.488-21.499 21.488-11.872 0-21.498-9.623-21.498-21.488 0-11.877 9.626-21.5 21.498-21.5 11.871 0 21.499 9.623 21.499 21.5z"/><path fill="#333" d="M146.313 174.563c-12.957 0-23.498-10.537-23.498-23.488 0-12.958 10.541-23.5 23.498-23.5s23.499 10.542 23.499 23.5c0 12.95-10.542 23.488-23.499 23.488zm0-42.989c-10.751 0-19.498 8.748-19.498 19.5 0 10.746 8.747 19.488 19.498 19.488 10.752 0 19.499-8.742 19.499-19.488 0-10.752-8.748-19.5-19.499-19.5zM143.142 148.738h-3.724v10.277h-2.275v-10.277h-3.74v-2.109h9.739v2.109zm5.504-2.074h2.092l1.318 4.1 1.316-4.1h2.111l-1.994 5.635 1.483 3.961 3.312-9.631h2.472l-4.763 12.387h-1.912l-2.025-5.199-2.027 5.199h-1.911l-4.746-12.387h2.456l3.328 9.631 1.449-3.961-1.959-5.635z"/><g fill="#B19090"><path d="M11.294 37.583h-6.762v-15.448h6.011c1.046 0 1.948.125 2.707.376.758.251 1.329.589 1.712 1.017.692.795 1.039 1.694 1.039 2.696 0 1.208-.39 2.106-1.171 2.695-.265.207-.45.336-.553.387l-.552.255c.958.206 1.72.637 2.287 1.292.567.656.851 1.47.851 2.442 0 1.075-.369 2.025-1.105 2.851-.854.958-2.342 1.437-4.464 1.437zm-3.314-9.194h1.635c.958 0 1.668-.103 2.132-.31.464-.206.696-.651.696-1.337 0-.685-.214-1.138-.641-1.358-.427-.222-1.149-.332-2.166-.332h-1.656v3.337zm0 6.277h2.364c.987 0 1.727-.122 2.221-.364.493-.243.74-.722.74-1.437s-.262-1.187-.785-1.415c-.523-.228-1.359-.342-2.508-.342h-2.032v3.558zm22.452-3.028c0 1.724-.597 3.175-1.79 4.354-1.193 1.179-2.693 1.768-4.498 1.768s-3.304-.589-4.497-1.768-1.79-2.63-1.79-4.354.597-3.179 1.79-4.365c1.193-1.186 2.692-1.778 4.497-1.778s3.304.593 4.498 1.778c1.193 1.186 1.79 2.642 1.79 4.365zm-9.237 0c0 .972.276 1.765.829 2.375.552.612 1.259.917 2.121.917s1.569-.305 2.122-.917c.553-.61.829-1.403.829-2.375 0-.973-.276-1.769-.829-2.387-.552-.619-1.26-.929-2.122-.929s-1.569.31-2.121.929c-.553.619-.829 1.415-.829 2.387zm14.231-.685v6.63h-3.315v-11.89h3.315v1.326c1.002-1.017 2.129-1.524 3.381-1.524 1.252 0 2.302.441 3.149 1.326.847.884 1.271 2.063 1.271 3.535v7.227h-3.314v-6.718c0-1.827-.671-2.74-2.011-2.74-.663 0-1.241.239-1.735.718s-.741 1.182-.741 2.11zm11.16 6.85v-12.132h3.314v12.397c0 1.296-.394 2.32-1.182 3.071-.788.752-1.753 1.127-2.895 1.127s-2.228-.472-3.26-1.414l1.525-2.453c.442.516.936.773 1.481.773.294 0 .538-.114.729-.342.192-.228.288-.57.288-1.027zm.276-13.624c-.375-.375-.563-.836-.563-1.381s.188-1.006.563-1.381c.376-.376.836-.563 1.381-.563s1.005.188 1.381.563c.375.375.563.836.563 1.381s-.187 1.006-.562 1.381c-.376.376-.836.563-1.381.563-.546.001-1.006-.187-1.382-.563zm17.292 7.459c0 1.724-.597 3.175-1.79 4.354-1.193 1.179-2.693 1.768-4.498 1.768s-3.304-.589-4.497-1.768-1.79-2.63-1.79-4.354.597-3.179 1.79-4.365c1.193-1.186 2.692-1.778 4.497-1.778s3.304.593 4.498 1.778c1.194 1.186 1.79 2.642 1.79 4.365zm-9.237 0c0 .972.276 1.765.829 2.375.552.612 1.259.917 2.121.917s1.569-.305 2.122-.917c.553-.61.829-1.403.829-2.375 0-.973-.276-1.769-.829-2.387-.552-.619-1.26-.929-2.122-.929s-1.569.31-2.121.929c-.553.619-.829 1.415-.829 2.387zm18.585.464v-6.409h3.337v11.89h-3.337v-1.569c-.825 1.164-1.89 1.746-3.193 1.746s-2.397-.409-3.282-1.227c-.884-.817-1.326-2.029-1.326-3.635v-7.205h3.337v6.476c0 1.827.67 2.74 2.011 2.74.663 0 1.238-.239 1.724-.719.486-.479.729-1.174.729-2.088zm11.956-3.491c-.987 0-1.724.35-2.21 1.049-.486.7-.729 1.625-.729 2.773v5.149h-3.315v-11.89h3.315v1.569c.427-.486.961-.898 1.602-1.237.641-.339 1.293-.516 1.956-.53l.022 3.116h-.641zm-71.335 20.524h3.448v15.447h-3.448v-6.077h-6.143v6.077h-3.448v-15.447h3.448v6.453h6.143v-6.453zm16.442 13.724c-1.341 1.268-2.914 1.9-4.718 1.9s-3.296-.556-4.475-1.668-1.768-2.604-1.768-4.476.6-3.359 1.801-4.464 2.619-1.657 4.254-1.657c1.636 0 3.024.493 4.166 1.48 1.142.987 1.712 2.343 1.712 4.066v1.768h-8.663c.103.648.442 1.179 1.017 1.591.574.413 1.223.619 1.945.619 1.164 0 2.121-.391 2.873-1.171l1.856 2.012zm-3.182-7.05c-.457-.383-1.013-.574-1.668-.574-.656 0-1.256.198-1.801.597-.545.397-.862.936-.95 1.613h5.215c-.075-.707-.34-1.252-.796-1.636zm9.082 8.774h-3.315v-16.398h3.315v16.398zm5.679 0h-3.315v-16.398h3.315v16.398zm14.253-5.945c0 1.724-.597 3.175-1.79 4.354-1.193 1.179-2.693 1.768-4.498 1.768s-3.304-.589-4.497-1.768-1.79-2.63-1.79-4.354.597-3.179 1.79-4.365c1.193-1.186 2.692-1.778 4.497-1.778s3.304.593 4.498 1.778c1.194 1.186 1.79 2.642 1.79 4.365zm-9.237 0c0 .972.276 1.765.829 2.375.552.612 1.259.917 2.121.917s1.569-.305 2.122-.917c.553-.61.829-1.403.829-2.375 0-.973-.276-1.769-.829-2.387-.552-.619-1.26-.929-2.122-.929s-1.569.31-2.121.929-.829 1.415-.829 2.387z"/><path d="M9.557 75.17c-.421.88-1.013 1.936-1.777 3.165v7.381l-1.729-.02v-4.991c-.252.278-.683.709-1.292 1.291l-1.03-1.476c1.515-1.327 2.914-3.289 4.196-5.885l1.632.535zm-1.729 11.634c-.712 2.039-1.528 3.652-2.447 4.836l-1.496-.99c.809-.99 1.573-2.444 2.292-4.36l1.651.514zm13.12-10.634c-.369 1.547-.748 2.738-1.136 3.573l-1.69-.553c.201-.44.375-.897.524-1.37h-6.468c-.81 1.191-1.638 2.134-2.486 2.826l-1.272-1.193c1.243-1.042 2.483-2.647 3.719-4.816l1.593.68c-.227.427-.392.712-.495.854h7.711zm-3.302 12.848c-.213 1.088-.438 1.807-.675 2.156s-.602.589-1.097.719c-.496.129-1.614.194-3.355.194-1.541 0-2.574-.135-3.098-.403s-.787-.892-.787-1.869v-3.642h1.758v3.516c0 .311.128.513.384.606s.905.141 1.947.141c1.133 0 1.85-.027 2.151-.082.301-.056.528-.217.68-.485.152-.27.267-.779.345-1.53l1.747.679zm-4.253-8.371c-1.068 1.884-2.13 3.348-3.186 4.39l-1.35-1.155c.978-.952 1.984-2.351 3.02-4.195l1.516.96zm1.728 7.614l-1.369 1.049c-.673-1.056-1.438-2.05-2.292-2.981l1.311-1.029c1.094 1.177 1.877 2.164 2.35 2.961zm.874-2.525h-1.806v-7.157h1.806v7.157zm5.332-1.933l-1.427 1.02c-.868-1.418-1.904-2.777-3.108-4.078l1.418-.933c1.21 1.288 2.249 2.619 3.117 3.991zm.058 7.002l-1.525.913c-.764-1.664-1.654-3.176-2.67-4.535l1.457-.952c1.087 1.412 2 2.936 2.738 4.574zm9.844-1.369l-1.233 1.447c-.635-.731-1.382-1.473-2.244-2.225-.738 1.172-1.832 2.367-3.282 3.584l-1.233-1.321c1.172-.919 2.214-2.059 3.127-3.418-.362-.33-1.298-1.032-2.807-2.107.486-1.955.845-3.632 1.078-5.03-.524.071-.971.097-1.34.077l-.019-1.709c.809-.039 1.359-.077 1.651-.116.259-1.218.479-2.519.66-3.904l1.69.243c-.123 1.159-.295 2.312-.515 3.457.414.02 1.01-.025 1.787-.136.065-.531.097-1.017.097-1.457h1.632c.032.57.039.975.019 1.214.292-.025.602-.064.933-.116l-.02 1.709c-.492.097-.829.149-1.01.155-.252 3.018-.777 5.445-1.573 7.284.937.757 1.805 1.547 2.602 2.369zm-2.817-9.43c-.596.091-1.247.158-1.952.204-.311 1.709-.634 3.211-.971 4.506.861.615 1.412 1.014 1.651 1.194.667-1.566 1.09-3.535 1.272-5.904zm12.11 4.331h-3.816v5.895c0 .609-.144 1.049-.432 1.321-.288.271-.665.446-1.131.524-.466.077-1.424.116-2.875.116l-.68-1.768c.899.026 1.796.039 2.69.039.408 0 .612-.204.612-.611v-5.517h-4.448v-1.766h4.448v-2.224c1.01-1.14 1.926-2.26 2.748-3.36h-6.778v-1.748h9.002v1.748c-1.036 1.425-2.088 2.777-3.156 4.06v1.524h3.816v1.767z" stroke="#B19090" stroke-width=".5" stroke-miterlimit="10"/></g></svg>