<svg id="Layer_1" data-name="Layer 1" xmlns="http://www.w3.org/2000/svg" width="72.61" height="72.61" viewBox="0 0 72.61 72.61">
  <defs>
    <style>
      .cls-1 {
        fill: #e551a9;
      }

      .cls-2 {
        fill: #fff;
      }
    </style>
  </defs>
  <title>id</title>
  <g>
    <circle class="cls-1" cx="36.31" cy="36.31" r="36.31"/>
    <g>
      <path class="cls-2" d="M19.06,51V20.54h6.46V51Z" transform="translate(-0.29 -0.26)"/>
      <path class="cls-2" d="M40.06,51.42a7.57,7.57,0,0,1-6.45-3.19Q31.27,45,31.27,39.4t2.39-8.93a7.75,7.75,0,0,1,6.57-3.2,7.6,7.6,0,0,1,6.71,3.42h.21A26,26,0,0,1,46.67,26V18.58H53V51H48.17l-1.23-3h-.27A7.27,7.27,0,0,1,40.06,51.42Zm2.23-5.06a4.31,4.31,0,0,0,3.57-1.42q1.14-1.42,1.24-4.81v-.69q0-3.75-1.16-5.38a4.3,4.3,0,0,0-3.76-1.63,3.73,3.73,0,0,0-3.3,1.8,9.62,9.62,0,0,0-1.18,5.24,9.12,9.12,0,0,0,1.19,5.16A3.88,3.88,0,0,0,42.29,46.36Z" transform="translate(-0.29 -0.26)"/>
    </g>
  </g>
</svg>
