<svg xmlns="http://www.w3.org/2000/svg" width="73" height="73" viewBox="0 0 73 73"><circle fill="#CD8F48" cx="36.419" cy="36.22" r="36.221"/><path d="M37.468 50.044l-2.204-7.234h-11.08l-2.204 7.234h-6.944l10.728-30.519h7.879l10.769 30.519h-6.944zm-3.742-12.64c-2.037-6.556-3.184-10.263-3.44-11.123-.257-.858-.44-1.538-.551-2.037-.458 1.774-1.767 6.161-3.929 13.16h7.92zm13.742-16.611c0-2.064 1.15-3.098 3.451-3.098s3.451 1.033 3.451 3.098c0 .984-.288 1.75-.863 2.298-.575.547-1.438.821-2.588.821-2.301 0-3.451-1.04-3.451-3.119zm6.611 29.251h-6.342v-23.242h6.342v23.242z" fill="#fff"/></svg>