<svg xmlns="http://www.w3.org/2000/svg" width="73" height="73" viewBox="0 0 73 73"><circle fill="#2D5BA0" cx="36.22" cy="36.221" r="36.22"/><path fill="#fff" d="M40.458 32.044c1.404 1.001 3.026 1.529 4.692 1.529 2.312 0 4.362-1.019 5.628-2.794.258-.36.48-.755.662-1.171.043-.102.011-.221-.08-.284-.088-.064-.213-.058-.293.018-1.166 1.072-2.735 1.663-4.422 1.663-1.566 0-3.095-.499-4.419-1.443-2.809-2.001-3.934-5.545-2.676-8.427.044-.102.011-.221-.079-.284-.091-.065-.213-.059-.294.018-.335.306-.635.645-.893 1.008-1.09 1.529-1.463 3.433-1.049 5.356.413 1.915 1.558 3.624 3.223 4.811zm11.35 3.705c-.092-.064-.214-.028-.296.046-1.862 1.714-4.371 2.714-7.064 2.714-2.501 0-4.937-.851-7.047-2.354-4.481-3.192-6.276-8.908-4.268-13.512.044-.102.011-.218-.078-.281-.09-.064-.213-.053-.295.023-.519.478-.985 1.015-1.387 1.577-3.501 4.911-1.978 12.041 3.394 15.87 2.191 1.563 4.725 2.428 7.324 2.428 3.6 0 6.795-1.619 8.766-4.384.399-.562.746-1.209 1.029-1.856.045-.103.011-.207-.078-.271zm-.971 7.39c-2.564 2.357-6.02 3.771-9.726 3.771h-.001c-3.438 0-6.79-1.207-9.692-3.275-6.165-4.393-8.633-12.245-5.868-18.583.045-.101.013-.246-.078-.312-.091-.062-.214-.07-.295.004-.706.65-1.34 1.354-1.887 2.122-4.76 6.681-2.627 16.338 4.683 21.549 2.984 2.125 6.027 3.223 10.027 3.223v-.002c5 0 9.188-2.129 11.865-5.888.545-.762.988-1.57 1.374-2.451.044-.102-.004-.168-.095-.232-.089-.064-.225-.001-.307.074z"/></svg>