<?xml version="1.0" encoding="utf-8"?>
<!-- Generator: Adobe Illustrator 16.0.0, SVG Export Plug-In . SVG Version: 6.00 Build 0)  -->
<!DOCTYPE svg PUBLIC "-//W3C//DTD SVG 1.1//EN" "http://www.w3.org/Graphics/SVG/1.1/DTD/svg11.dtd">
<svg version="1.1" id="Layer_1" xmlns="http://www.w3.org/2000/svg" xmlns:xlink="http://www.w3.org/1999/xlink" x="0px" y="0px"
	 width="235px" height="242px" viewBox="0 0 235 242" enable-background="new 0 0 235 242" xml:space="preserve">
<g>
	<polygon fill="#333333" points="4.725,163.688 4.079,69.879 70.399,3.559 164.531,3.883 230.852,70.203 230.912,164.072 
		164.592,230.391 71.045,230.008 	"/>
	<g>
		<g>
			<polygon fill="#FFFFFF" points="125.495,51.779 109.052,50.029 94.438,57.298 86.217,60 74.951,60 58.509,69.06 50.288,86.68 
				37.5,93.514 33.845,112.154 34.759,135.326 42.675,149.044 56.682,160.625 79.518,163.978 			"/>
			<path fill="#5C7FA0" d="M125.694,53.256c0,0-9.881-10.843-20.77-4.622C94.037,54.856,83.049,59,83.049,59H71.004l-17.12,14.821
				L48.44,85.307l-9.722,8.273l-6.61,17.164l2.722,12.859l-2.333,15.177l10.178,10.276l9.265,6.458l10.889,6.61l12.832-0.387
				l4.277-1.557l6.999,3.111L125.694,53.256z"/>
			<path fill="#B19090" d="M125.495,53.455l-6.09,6.393l-7.765,7.766l-2.74,10.199l-1.675,4.264L96.112,86.49l-9.439,7.764
				l-5.937,12.027l1.218,15.225l-4.873,7.916l-4.11,13.246l5.328,14.311c0,0,14.311,9.285,14.615,9.742
				c0.305,0.457,25.881,7.461,26.338,7.766c0.457,0.303,29.534-3.35,29.534-3.35l5.634-3.35l18.877,1.674l14.615-10.199
				l8.222-15.682c0,0,4.719-10.199,4.719-11.113s-3.349-13.092-3.349-13.092l2.893-12.484c0,0-3.654-12.484-3.654-12.939
				c0-0.457-6.241-10.811-6.241-10.811s-6.852-9.59-8.069-9.742s-6.546-4.568-7.155-5.633c-0.608-1.066-15.071-14.615-15.833-14.615
				c-0.761,0-20.856-2.438-21.771-2.438S125.495,53.455,125.495,53.455z"/>
			<path fill="#333333" d="M122.521,177.537c-22.096,0-34.966-7.729-39.539-11.105c-3.995,1.219-7.857,1.84-11.5,1.84
				c-14.736,0-22.098-9.73-24.459-13.645c-6.434-2.338-11.065-6.309-13.777-11.828c-4.658-9.471-2.03-20.561-0.862-24.436
				c-3.31-9.889-3.021-18.207,0.863-24.734c3.955-6.65,10.574-9.486,14.302-10.613c5.514-24.445,22.949-28.174,33.07-28.174
				c3.888,0,7.229,0.531,9.399,0.998c6.271-7.098,13.968-10.83,22.39-10.83c7.442,0,13.54,2.891,16.226,4.412
				c5.396-0.969,10.507-1.461,15.216-1.461c25.654,0,34.53,14.441,37.23,20.969c4.221,0.281,7.73,1.809,10.439,4.557
				c3.985,4.029,4.954,9.447,5.186,12.16c11.004,12.842,8.502,25.664,4.656,32.549c9.084,13.596,1.533,26.1-4.699,31.709
				c-6.341,19.672-21.403,22.645-29.92,22.645c-3.732,0-6.797-0.551-8.419-0.922C145.717,175.551,133.678,177.537,122.521,177.537z
				 M83.776,158.127c0.981,0,1.945,0.373,2.684,1.061c0.1,0.094,11.722,10.518,36.062,10.518c10.663,0,22.267-1.979,34.49-5.881
				c0.755-0.246,1.563-0.254,2.322-0.018c0.02,0.004,3.159,0.912,7.408,0.912c11.534,0,19.19-6.109,22.756-18.164
				c0.225-0.762,0.677-1.439,1.296-1.938c1.34-1.104,12.919-11.209,2.756-23.832c-1.145-1.426-1.156-3.439-0.032-4.869
				c0.361-0.48,9.082-12.279-3.546-26.055c-0.673-0.734-1.04-1.701-1.029-2.697c0-0.029-0.024-5.197-3.023-8.207
				c-1.702-1.701-4.1-2.463-7.369-2.205c-1.978,0.1-3.708-1.211-4.098-3.123c-0.154-0.699-4.239-17.834-30.603-17.834
				c-4.643,0-9.764,0.539-15.222,1.596c-1.022,0.209-2.101-0.021-2.968-0.621c-0.045-0.033-5.886-3.926-13.252-3.926
				c-6.774,0-12.785,3.297-17.868,9.807c-1.01,1.297-2.717,1.82-4.28,1.318c-0.032-0.01-4.203-1.299-9.641-1.299
				c-14.242,0-22.947,8.166-25.873,24.26c-0.301,1.648-1.611,2.924-3.266,3.172c-0.058,0.012-7.859,1.344-11.535,7.588
				c-2.761,4.695-2.674,11.188,0.255,19.307c0.316,0.871,0.31,1.824-0.01,2.691c-0.039,0.107-4.052,11.295,0.099,19.686
				c1.968,3.979,5.43,6.686,10.589,8.291c1.054,0.332,1.923,1.088,2.388,2.094c0.2,0.414,5.272,10.68,18.217,10.68
				c3.386,0,7.083-0.701,10.986-2.084C82.896,158.201,83.337,158.127,83.776,158.127z"/>
			<path fill="#333333" d="M89.212,166.188c-0.395,0-0.794-0.115-1.138-0.365c-10.591-7.586-16.093-15.813-16.351-24.453
				c-0.298-9.832,6.313-17.002,8.811-19.354c-2.559-12.244-1.067-22.207,4.449-29.623c6.649-8.941,17.132-11.451,21.395-12.125
				c-0.089-8.314,2.198-14.924,6.809-19.656c7.433-7.637,18.12-7.486,18.577-7.465c1.08,0.027,1.934,0.922,1.911,1.998
				c-0.023,1.08-0.898,1.961-1.999,1.92c-0.104,0.008-9.49-0.109-15.709,6.309c-4.135,4.258-6.025,10.49-5.619,18.518
				c0.054,1.066-0.757,1.98-1.82,2.057c-0.129,0.01-13.194,1.059-20.423,10.813c-4.95,6.676-6.131,15.939-3.501,27.521
				c0.164,0.723-0.101,1.48-0.675,1.953c-0.086,0.066-8.606,7.15-8.289,17.051c0.233,7.344,5.185,14.529,14.713,21.357
				c0.88,0.625,1.084,1.848,0.453,2.725C90.424,165.906,89.821,166.188,89.212,166.188z"/>
			<path fill="#333333" d="M95.579,72.951c-0.654,0-1.291-0.326-1.665-0.922c-1.397-2.242-2.044-4.787-2.618-7.033
				c-0.199-0.787-0.392-1.541-0.603-2.219c-0.328-1.033,0.244-2.133,1.276-2.455c1.036-0.316,2.132,0.242,2.457,1.277
				c0.235,0.742,0.445,1.563,0.666,2.428c0.503,1.971,1.07,4.201,2.147,5.928c0.572,0.918,0.293,2.125-0.625,2.697
				C96.291,72.855,95.935,72.951,95.579,72.951z"/>
			<path fill="#333333" d="M46.599,151.994c-0.754,0-1.474-0.436-1.794-1.17c-0.436-0.99,0.013-2.146,1.005-2.584
				c1.46-0.639,3.016-0.908,4.519-1.166c1.463-0.252,2.847-0.486,3.942-1.041c1.786-0.904,3.26-2.814,4.561-4.498l0.35-0.445
				c1.553-1.984,1.702-4.545,0.441-7.619c-0.817-1.998-3.074-5.771-4.204-6.475c-0.5-0.309-0.835-0.828-0.91-1.414
				c-0.089-0.682-0.428-1.449-0.791-2.264c-0.4-0.902-0.814-1.836-0.998-2.879c-0.441-2.535,0.013-5.82,0.536-7.869
				c0.267-1.055,1.331-1.703,2.381-1.414c1.049,0.266,1.682,1.33,1.414,2.379c-0.445,1.748-0.783,4.443-0.474,6.227
				c0.101,0.568,0.403,1.244,0.723,1.967c0.335,0.76,0.709,1.594,0.936,2.508c2.363,2.094,4.627,6.809,5.014,7.75
				c1.805,4.408,1.467,8.391-0.98,11.514l-0.34,0.436c-1.475,1.91-3.315,4.285-5.891,5.592c-1.62,0.82-3.36,1.121-5.045,1.408
				c-1.331,0.229-2.584,0.445-3.608,0.895C47.13,151.941,46.86,151.994,46.599,151.994z"/>
			<path fill="#333333" d="M111.837,175.395c-0.529,0-1.059-0.217-1.443-0.635c-0.73-0.803-0.678-2.039,0.12-2.77
				c0.859-0.787,1.708-1.301,2.456-1.756c0.893-0.545,1.598-0.975,2.215-1.77c0.851-1.092,0.923-1.961,1.044-3.395
				c0.059-0.709,0.125-1.465,0.281-2.313c0.143-0.785,0.387-1.533,0.638-2.287c0.393-1.184,0.731-2.199,0.563-3.367
				c-0.216-1.473-0.971-3.396-1.576-4.939l-0.705-1.852c-1.087-2.914-2.111-5.674-4.479-6.906c-1.018-0.529-2.372-0.863-3.683-1.186
				c-1.045-0.252-2.07-0.512-2.977-0.848c-0.573-0.215-1.167-0.457-1.766-0.701c-1.227-0.498-2.492-1.012-3.53-1.268
				c-3.169-0.779-6.163-1.816-9.062-2.822l-3.139-1.068c-3.928-1.305-8.378-2.785-10.028-7.762
				c-0.344-1.027,0.215-2.135,1.239-2.473c1.028-0.35,2.134,0.215,2.477,1.238c0.985,2.961,3.508,3.936,7.548,5.279l3.188,1.09
				c2.939,1.016,5.72,1.979,8.707,2.715c1.316,0.322,2.721,0.891,4.076,1.439c0.567,0.236,1.126,0.459,1.664,0.662
				c0.77,0.285,1.646,0.494,2.537,0.715c1.536,0.379,3.126,0.768,4.561,1.518c3.702,1.93,5.103,5.691,6.337,9.01l0.683,1.791
				c0.68,1.73,1.525,3.889,1.803,5.807c0.302,2.084-0.243,3.721-0.72,5.164c-0.194,0.582-0.394,1.154-0.505,1.76
				c-0.131,0.709-0.181,1.342-0.23,1.934c-0.142,1.703-0.291,3.461-1.851,5.467c-1.057,1.363-2.234,2.082-3.275,2.713
				c-0.604,0.365-1.23,0.738-1.844,1.301C112.784,175.223,112.309,175.395,111.837,175.395z"/>
			<path fill="#333333" d="M106.323,116.172c-0.093,0-0.187,0-0.279,0c-3.796,0-7.446-2.607-9.416-4.682
				c-0.637-0.672-1.167-1.332-1.661-1.92c-1.21-1.438-2.01-2.404-3.788-3.244c-2.04-0.973-4.997-1.305-7.168,0.674
				c-0.796,0.73-2.038,0.67-2.766-0.137c-0.728-0.803-0.667-2.041,0.132-2.768c3.013-2.738,7.416-3.244,11.479-1.324
				c2.549,1.207,3.792,2.688,5.108,4.256c0.449,0.527,0.929,1.096,1.504,1.711c1.517,1.598,4.25,3.342,6.67,3.395
				c1.375,0.115,3.095-0.363,4.316-1.02c0.53-0.283,0.772-0.645,1.193-1.307c0.215-0.336,0.462-0.727,0.785-1.113
				c0.343-5.623,2.372-11.105,5.313-14.367c-0.031-3.682-6.069-8.92-9.465-9.496c-1.067-0.188-1.785-1.193-1.6-2.262
				c0.18-1.064,1.206-1.779,2.26-1.604c4.941,0.844,13.726,7.951,12.628,14.537c-0.067,0.404-0.262,0.785-0.555,1.074
				c-2.641,2.6-4.53,7.828-4.701,13.01c-0.018,0.555-0.268,1.07-0.687,1.424c-0.229,0.199-0.425,0.508-0.67,0.898
				c-0.501,0.787-1.187,1.922-2.648,2.715C110.55,115.564,108.336,116.172,106.323,116.172z"/>
			<path fill="#333333" d="M63.712,97.762c-0.311,0-0.629-0.021-0.958-0.072c-2.536-0.381-5.397-0.963-7.27-3.09
				c-1.169-1.328-1.771-2.674-2.352-3.975c-0.275-0.619-0.553-1.246-0.909-1.877c-0.281-0.498-0.631-0.988-0.982-1.49
				c-1.068-1.518-2.395-3.064-2.41-5.451c-0.008-1.09,0.861-1.635,1.945-1.635c0.003,0,0.008,0,0.013,0
				c1.075,0,1.951,0.527,1.958,1.604c0.009,1.168,0.829,2.166,1.697,3.398c0.43,0.611,0.847,1.125,1.187,1.732
				c0.421,0.742,0.756,1.43,1.076,2.168c0.507,1.127,0.943,2.078,1.717,2.961c0.998,1.131,2.971,1.502,4.908,1.791
				c1.163,0.15,2.352-0.529,3.855-2.266c1.448-1.676,2.362-3.053,3.155-4.746c0.151-0.324,0.287-0.662,0.429-1.004
				c0.716-1.738,1.608-3.891,3.973-4.844c1.542-0.623,3.122-0.543,4.513-0.471c1.135,0.064,2.199,0.111,2.873-0.242
				c1.102-0.58,2.335-1.813,2.18-3.371c-0.037-0.373-0.104-0.525-0.169-0.639c-0.551-0.934-0.243-2.133,0.688-2.686
				c0.931-0.541,2.133-0.234,2.681,0.688c0.513,0.869,0.644,1.701,0.697,2.256c0.285,2.871-1.385,5.707-4.254,7.217
				c-1.624,0.854-3.359,0.771-4.899,0.688c-1.09-0.064-2.112-0.104-2.847,0.191c-0.781,0.311-1.206,1.227-1.815,2.707
				c-0.164,0.396-0.326,0.791-0.502,1.164c-0.944,2.02-2.063,3.709-3.74,5.65C68.758,95.725,66.629,97.762,63.712,97.762z"/>
			<polygon fill="#00FFEA" points="148.703,83.682 182.905,80.959 161.297,133.842 186.946,131.801 131.661,199.141 
				152.288,149.414 129.491,151.225 			"/>
		</g>
		<g>
			<circle fill="#333333" cx="186.182" cy="204.543" r="17.27"/>
			<g>
				<path fill="#B19090" d="M194.594,187.914c-0.4,0-0.779-0.219-0.933-0.576c-0.198-0.465,0.06-0.986,0.575-1.166
					c0.094-0.031,9.503-3.367,8.734-9.262c-0.328-2.516-4.566-4.125-9.055-5.83c-6.096-2.314-13.006-4.939-14.674-10.945
					c-0.133-0.48,0.192-0.971,0.729-1.09c0.535-0.125,1.078,0.17,1.213,0.654c1.424,5.131,7.844,7.57,13.51,9.721
					c5.039,1.914,9.799,3.723,10.264,7.279c0.95,7.285-9.557,11.002-10.005,11.156C194.834,187.895,194.713,187.914,194.594,187.914
					z"/>
				<g>
					<path fill="#B19090" d="M188.156,184.303v6.195c2.328,0.746,4,2.768,4,5.152v11.07c0,3.018-2.674,5.451-5.971,5.451h-0.077
						c-3.298,0-5.952-2.434-5.952-5.451v-11.07c0-2.391,1.668-4.418,4-5.158v-6.189c-8.998,0.996-16,8.619-16,17.883v19
						c0,9.941,8.06,18,18,18c9.941,0,18-8.059,18-18v-19C204.156,192.922,197.155,185.299,188.156,184.303z"/>
					<path fill="#B19090" d="M187.823,201.139c0,1.102-0.559,2.033-1.659,2.033h-0.016c-1.1,0-2.325-0.932-2.325-2.033v-6.016
						c0-1.1,1.226-1.951,2.325-1.951h0.016c1.101,0,1.659,0.852,1.659,1.951V201.139z"/>
				</g>
			</g>
		</g>
	</g>
</g>
</svg>
