<svg xmlns="http://www.w3.org/2000/svg" width="73px" height="73px" viewBox="0 0 73 73"><circle fill="#4877BE" cx="36.649" cy="36.221" r="36.221"/><path d="M38.347 29.081c0 3.271-1.023 5.772-3.067 7.505-2.044 1.732-4.951 2.599-8.721 2.599h-2.765v10.811h-6.445v-30.395h9.708c3.687 0 6.49.794 8.41 2.381 1.919 1.586 2.88 3.953 2.88 7.099zm-14.554 4.823h2.121c1.981 0 3.464-.392 4.449-1.175.984-.783 1.476-1.923 1.476-3.42 0-1.511-.413-2.626-1.237-3.347-.825-.721-2.117-1.081-3.877-1.081h-2.931v9.023zm34.943 9.189c0 2.384-.828 4.2-2.484 5.447s-4.134 1.871-7.433 1.871c-1.69 0-3.132-.114-4.324-.343-1.191-.229-2.307-.565-3.347-1.009v-5.239c1.178.555 2.505 1.019 3.981 1.394 1.477.374 2.775.561 3.898.561 2.3 0 3.45-.665 3.45-1.995 0-.499-.152-.904-.457-1.217-.306-.312-.831-.665-1.58-1.06-.749-.396-1.746-.855-2.993-1.383-1.789-.748-3.102-1.441-3.939-2.079-.84-.637-1.449-1.368-1.83-2.193-.381-.824-.572-1.84-.572-3.045 0-2.065.801-3.663 2.402-4.792 1.6-1.13 3.869-1.694 6.809-1.694 2.799 0 5.521.609 8.17 1.829l-1.913 4.573c-1.164-.499-2.253-.907-3.264-1.227-1.013-.318-2.045-.478-3.098-.478-1.871 0-2.807.506-2.807 1.518 0 .568.302 1.061.904 1.476.603.416 1.923 1.033 3.96 1.851 1.816.734 3.146 1.421 3.992 2.058.845.638 1.469 1.373 1.871 2.204.403.831.604 1.821.604 2.972z" fill="#fff"/></svg>