<svg xmlns="http://www.w3.org/2000/svg" width="235" height="242" viewBox="0 0 235 242"><circle fill="#00FFEA" cx="82.621" cy="184.189" r="12.555"/><path fill="#333" d="M4.843 160.688l-.646-93.809 66.32-66.32 94.131.324 66.321 66.32.061 93.869-66.32 66.319-93.547-.383z"/><circle fill="#00FFEA" cx="151.621" cy="184.189" r="12.555"/><path d="M80.048 137.066c-7.576 0-13.716 6.141-13.716 13.717 0 7.574 6.14 13.713 13.716 13.713s13.717-6.139 13.717-13.713c0-7.576-6.14-13.717-13.717-13.717zm20.952 104.934v-44h14v-34h-22.332c-3.372 2-7.764 4.413-12.605 4.413-3.415 0-6.602-1.308-9.38-2.874-7.45 3.289-18.974 12.227-25.074 36.389-.893 3.535 1.32 7.123 4.845 8.061 3.954 1.051 7.883-1.254 9.094-4.281 1.291-3.229 2.453-6.799 4.453-9.41v45.702h15v-23h7v23m-3.461-48.582s-11.895-8.459-8.213-14.066c2.246-3.424 7.262.813 8.078 1.541.403-.354 5.847-5.141 8.208-1.541 3.69 5.627-7.261 13.683-8.073 14.066z" fill="#AF8E8E"/><circle fill="#5C7FA0" cx="114.887" cy="180.35" r="9.331"/><path fill="#333" d="M114.888 191.182c-5.973 0-10.832-4.859-10.832-10.832s4.858-10.832 10.832-10.832c5.973 0 10.831 4.859 10.831 10.832s-4.859 10.832-10.831 10.832zm0-18.664c-4.318 0-7.832 3.514-7.832 7.832s3.513 7.832 7.832 7.832 7.831-3.514 7.831-7.832-3.513-7.832-7.831-7.832z"/><path d="M139.677 151.061c0 7.574 6.141 13.715 13.717 13.715s13.716-6.141 13.716-13.715c0-7.576-6.14-13.715-13.716-13.715s-13.717 6.138-13.717 13.715zm7.323 90.939v-23h7v23h15v-45.426c2 2.613 3.383 6.176 4.674 9.404 1.211 3.027 5.403 5.328 9.357 4.277 3.525-.938 5.716-4.535 4.823-8.07-6.1-24.162-17.635-33.123-25.084-36.412-2.778 1.566-5.971 2.778-9.386 2.778-4.841 0-9.239-2.552-12.611-4.552h-22.773v34h14v44m10.828-62.368c2.362-3.6 7.807 1.186 8.209 1.541.815-.729 5.832-4.965 8.078-1.541 3.682 5.607-8.213 14.064-8.213 14.064-.812-.381-11.763-8.439-8.074-14.064z" fill="#5C7FA0"/><path fill="#00FFEA" d="M162.437 61.274c0-23.184-20.492-42.045-45.683-42.045-25.188 0-45.682 18.861-45.682 42.045 0 13.844 9.625 27.633 13.756 32.911 3.038 3.958 6.426 9.075 9.202 13.89-1.93.948-3.38 3.519-3.38 5.873 0 2.865 2.356 6.374 5.51 6.374h2.396c-.611 0-.978 1.88-.978 3.217 0 2.347 1.136 4.208 2.733 5.009-.698.992-1.124 2.913-1.124 4.441 0 3.102 1.748 6.085 3.978 6.085h1.403c.065 5.114 4.955 9.199 11.747 9.199 11.536 0 12.604-9.199 12.604-9.199h1.424c2.23 0 3.978-3.06 3.978-6.16 0-1.529-.425-3.211-1.123-4.203 1.598-.799 2.733-2.665 2.733-5.018 0-1.335-.367-3.371-.978-3.371h2.395c3.153 0 5.509-3.509 5.509-6.374 0-2.331-1.429-4.618-3.42-5.495 2.055-4.547 4.32-8.627 6.709-11.95 7.586-9.169 16.291-21.526 16.291-35.229zm-45.683 80.497c-3.534 0-6.215-.992-6.309-3.229l.048.531h12.542l.03-.576c-.126 2.202-2.852 3.274-6.311 3.274z"/><path d="M101.923 40.412v13.46h-3.723v-13.46h-4.726v-3.223h13.174v3.223h-4.725zm12.648 3.771c-1.066 0-1.861.378-2.386 1.134s-.788 1.754-.788 2.995v5.561h-3.58v-12.84h3.58v1.694c.461-.524 1.038-.97 1.73-1.336.692-.366 1.396-.557 2.112-.573l.024 3.365h-.692zm12.984 7.828c-1.448 1.368-3.146 2.053-5.096 2.053s-3.561-.601-4.833-1.803c-1.272-1.201-1.909-2.812-1.909-4.832s.648-3.628 1.945-4.821 2.828-1.79 4.594-1.79c1.767 0 3.266.533 4.499 1.6 1.233 1.065 1.85 2.529 1.85 4.391v1.909h-9.355c.111.7.478 1.273 1.098 1.719.621.445 1.321.668 2.101.668 1.257 0 2.291-.421 3.103-1.265l2.003 2.171zm-3.438-7.614c-.492-.414-1.094-.62-1.801-.62-.709 0-1.357.214-1.945.644-.589.43-.931 1.011-1.026 1.742h5.632c-.08-.764-.366-1.351-.86-1.766zm-.763-5.107h-3.412l3.031-4.225 3.699 1.552-3.318 2.673zm16.3 10.585c0 1.265-.465 2.278-1.396 3.042-.931.764-2.111 1.146-3.544 1.146-.954 0-1.949-.172-2.983-.514s-1.965-.847-2.792-1.516l1.575-2.243c1.336 1.034 2.76 1.552 4.271 1.552.462 0 .828-.092 1.099-.275.271-.183.405-.425.405-.728 0-.302-.188-.58-.561-.835-.374-.255-.915-.493-1.623-.716s-1.249-.414-1.623-.573-.799-.39-1.276-.692c-.971-.604-1.456-1.499-1.456-2.685 0-1.185.478-2.151 1.432-2.899.955-.748 2.188-1.122 3.699-1.122s3.023.51 4.535 1.527l-1.337 2.387c-1.114-.764-2.224-1.146-3.329-1.146-1.106 0-1.658.303-1.658.907 0 .334.174.597.524.787.35.191.931.414 1.742.668.812.255 1.388.45 1.73.585.342.136.752.347 1.229.633.892.542 1.337 1.444 1.337 2.71zm-49.688 24.453h-7.303v-16.682h6.492c1.129 0 2.104.136 2.923.406s1.436.637 1.85 1.098c.748.859 1.122 1.83 1.122 2.912 0 1.305-.422 2.275-1.265 2.911-.287.223-.486.362-.597.418l-.597.274c1.034.223 1.857.688 2.47 1.396.612.709.919 1.588.919 2.638 0 1.161-.398 2.188-1.193 3.078-.923 1.035-2.53 1.551-4.821 1.551zm-3.58-9.928h1.766c1.034 0 1.802-.111 2.303-.335.501-.223.751-.703.751-1.443s-.23-1.229-.692-1.468-1.241-.358-2.339-.358h-1.79v3.604zm0 6.778h2.554c1.066 0 1.865-.131 2.398-.394.533-.263.799-.779.799-1.552 0-.771-.282-1.28-.847-1.527-.565-.246-1.468-.369-2.709-.369h-2.196v3.842zm23.89-3.27c0 1.861-.645 3.429-1.934 4.701-1.289 1.273-2.908 1.91-4.856 1.91-1.949 0-3.568-.637-4.856-1.91-1.289-1.272-1.934-2.84-1.934-4.701s.645-3.433 1.934-4.714c1.289-1.28 2.907-1.921 4.856-1.921 1.949 0 3.568.641 4.856 1.921 1.29 1.282 1.934 2.853 1.934 4.714zm-9.976 0c0 1.05.298 1.905.895 2.565s1.36.99 2.291.99 1.694-.33 2.291-.99.895-1.516.895-2.565-.298-1.909-.895-2.577c-.597-.669-1.36-1.003-2.291-1.003s-1.694.334-2.291 1.003c-.596.668-.895 1.527-.895 2.577zm15.012-.74v7.16h-3.58v-12.84h3.58v1.432c1.082-1.098 2.299-1.646 3.651-1.646 1.352 0 2.486.478 3.4 1.432.915.955 1.373 2.229 1.373 3.819v7.804h-3.58v-7.255c0-1.973-.725-2.96-2.172-2.96-.716 0-1.341.259-1.874.776-.532.516-.798 1.276-.798 2.278zm14.056 0v7.16h-3.58v-12.84h3.58v1.432c1.082-1.098 2.299-1.646 3.651-1.646 1.352 0 2.486.478 3.4 1.432.915.955 1.373 2.229 1.373 3.819v7.804h-3.58v-7.255c0-1.973-.725-2.96-2.172-2.96-.716 0-1.341.259-1.873.776-.532.516-.799 1.276-.799 2.278zm21.599 5.299c-1.448 1.368-3.146 2.053-5.096 2.053s-3.561-.601-4.833-1.803c-1.272-1.201-1.909-2.812-1.909-4.832s.648-3.628 1.945-4.821 2.828-1.79 4.594-1.79 3.266.533 4.499 1.6c1.232 1.065 1.85 2.529 1.85 4.391v1.909h-9.355c.111.7.478 1.273 1.098 1.719s1.32.668 2.101.668c1.256 0 2.291-.421 3.103-1.265l2.003 2.171zm-3.438-7.613c-.493-.414-1.094-.62-1.802-.62s-1.356.214-1.944.644c-.59.43-.932 1.011-1.026 1.742h5.632c-.08-.765-.367-1.352-.86-1.766zm-53.422 13.249h3.723v16.683h-3.723v-16.683zm11.181 16.874c-1.52 0-2.876-.645-4.069-1.934s-1.79-2.888-1.79-4.797.581-3.473 1.742-4.689c1.161-1.218 2.521-1.826 4.081-1.826 1.559 0 2.832.549 3.818 1.646v-6.3h3.58v17.708h-3.58v-1.694c-1.002 1.257-2.263 1.886-3.782 1.886zm-2.256-6.588c0 1.035.311 1.882.931 2.542.621.66 1.345.99 2.172.99s1.531-.33 2.112-.99c.581-.66.871-1.511.871-2.554 0-1.042-.291-1.909-.871-2.602-.581-.691-1.293-1.038-2.136-1.038-.844 0-1.567.351-2.172 1.051-.605.7-.907 1.567-.907 2.601zm22.935 4.535c-1.447 1.368-3.146 2.053-5.096 2.053-1.948 0-3.56-.601-4.832-1.803-1.273-1.201-1.909-2.812-1.909-4.832s.648-3.628 1.945-4.821c1.296-1.193 2.828-1.79 4.594-1.79 1.766 0 3.266.533 4.499 1.6 1.232 1.065 1.85 2.529 1.85 4.391v1.909h-9.356c.111.7.477 1.273 1.098 1.719.62.445 1.32.668 2.1.668 1.257 0 2.291-.421 3.104-1.265l2.003 2.171zm-3.437-7.613c-.493-.414-1.094-.62-1.802-.62s-1.356.214-1.945.644-.931 1.011-1.026 1.742h5.632c-.079-.764-.366-1.352-.859-1.766zm-.763-5.108h-3.413l3.031-4.225 3.699 1.552-3.317 2.673zm17.755 12.721c-1.448 1.368-3.146 2.053-5.095 2.053-1.949 0-3.561-.601-4.833-1.803-1.273-1.201-1.909-2.812-1.909-4.832s.648-3.628 1.945-4.821c1.296-1.193 2.828-1.79 4.594-1.79s3.266.533 4.498 1.6c1.233 1.065 1.85 2.529 1.85 4.391v1.909h-9.355c.111.7.479 1.273 1.099 1.719s1.32.668 2.101.668c1.256 0 2.291-.421 3.102-1.265l2.003 2.171zm-3.436-7.613c-.493-.414-1.094-.62-1.802-.62s-1.356.214-1.945.644-.931 1.011-1.026 1.742h5.633c-.081-.764-.367-1.352-.86-1.766z" fill="#333"/></svg>