<svg xmlns="http://www.w3.org/2000/svg" width="73" height="73" viewBox="0 0 73 73"><circle fill="#365374" cx="36.22" cy="36.221" r="36.22"/><path fill="#fff" d="M36.22 12.603c-13.022 0-23.618 10.597-23.618 23.618 0 13.023 10.595 23.618 23.618 23.618 13.023 0 23.619-10.595 23.619-23.618 0-13.022-10.596-23.618-23.619-23.618zm0 2.259c5.724 0 10.929 2.265 14.767 5.944-1.484-.405-2.952.464-3.97 2.299-1.974 3.563 2.646 5.145 3.399 9.54.754 4.397-.25 5.969-1.004 8.479-.753 2.513-2.449 7.893-2.449 7.893l-7.619-22.879h2.908c.485 0 .879-.314.879-.8s-.394-.8-.879-.8h-12.307c-.486 0-.879.314-.879.8s.394.8.879.8h2.591l3.383 9.409-4.656 13.743-7.705-23.152h2.366c.485 0 .879-.314.879-.8s-.394-.8-.879-.8h-7.577c3.819-6.396 10.403-9.676 17.873-9.676zm-21.357 21.359c0-3.266.738-6.364 2.055-9.136l10.154 28.433c-7.212-3.432-12.209-10.791-12.209-19.297zm15.446 20.525l6.542-18.511-.034-.131 6.608 18.222c-2.252.81-4.678 1.252-7.206 1.252-2.049 0-4.032-.291-5.91-.832zm17.297-2.464l5.638-17.806s2.606-6.301 1.601-10.696c1.739 3.089 2.732 6.651 2.732 10.44 0 7.595-3.984 14.274-9.971 18.062z"/></svg>